<svg width="242" height="112" viewBox="0 0 242 112" fill="none" xmlns="http://www.w3.org/2000/svg">
<path d="M185.68 30.468L185.651 50.3001H179.976V40.6473L175.589 48.0185H175.092L170.675 40.618V50.2708H165L165.029 30.4387H170.704L175.355 38.512L180.035 30.4387L185.68 30.468Z" fill="#24AECB"/>
<path d="M214.697 50.3001L208.408 30.468H214.639L217.885 43.0752L221.162 30.468H227.392L221.045 50.3001H214.697Z" fill="#24AECB"/>
<path d="M234.442 45.1228H241.814V50.3294H228.797L228.826 30.4973H241.726V35.6455H234.501V37.81H241.024V42.8997H234.501L234.442 45.1228Z" fill="#24AECB"/>
<path d="M205.747 33.0128C203.729 30.9945 201.242 30 198.288 30C195.334 30 192.847 30.9945 190.8 32.9836C188.782 34.9727 187.758 37.4297 187.758 40.3548C187.758 43.2799 188.782 45.737 190.771 47.7553C192.818 49.7444 195.305 50.7389 198.259 50.7389C201.213 50.7389 203.7 49.7444 205.718 47.7846C207.765 45.7662 208.789 43.3092 208.789 40.3841C208.818 37.459 207.795 35.0019 205.747 33.0128ZM202.881 42.7241C202.149 43.9819 201.067 44.8887 199.897 45.737C198.61 46.673 198.083 46.9363 198.083 46.9363C197.908 46.9948 197.879 46.8193 197.849 46.7315C197.82 46.5853 197.996 45.5322 197.996 45.3275V45.2982C197.996 45.0057 197.791 44.7717 197.498 44.7425C194.427 44.801 193.081 41.8174 193.081 40.1501C193.081 38.8045 193.637 37.459 194.603 36.4937C194.895 36.2012 195.217 35.9379 195.568 35.7332C197.557 34.5339 200.394 34.8557 202.032 36.4937C203.612 38.0733 203.992 40.7643 202.881 42.7241Z" fill="#24AECB"/>
<path d="M116.645 70.0349H124.017V75.2415H111L111.029 55.4094H123.929V60.5576H116.704V62.7222H123.227V67.8118H116.704L116.645 70.0349Z" fill="#21194F"/>
<path d="M126.006 55.4387H131.681V68.0166C131.681 69.4792 132.47 70.2397 134.079 70.2397C135.688 70.2397 136.478 69.5084 136.478 68.0459V55.468H142.152V68.6601C142.152 70.7954 141.421 72.492 139.9 73.779C138.408 75.0661 136.478 75.7389 134.05 75.7389C131.622 75.7389 129.721 75.0953 128.229 73.779C126.737 72.4628 126.006 70.7662 126.006 68.6601V55.4387Z" fill="#21194F"/>
<path d="M154.906 75.2416L151.776 69.0111H150.372V75.2416H144.697L144.727 55.4094H152.654C154.847 55.4094 156.632 56.0529 158.036 57.34C159.44 58.627 160.171 60.2943 160.142 62.3711C160.142 64.7112 159.001 66.671 157.07 67.8411L160.961 75.2708L154.906 75.2416ZM150.343 60.6453V64.331H152.507C153.736 64.3602 154.467 63.6874 154.467 62.5174C154.467 61.3474 153.736 60.6453 152.507 60.6453H150.343Z" fill="#21194F"/>
<path d="M192.464 55.4973C194.541 55.4973 196.237 56.1408 197.612 57.4571C198.987 58.7442 199.689 60.47 199.689 62.6053C199.689 64.7699 199.016 66.4957 197.612 67.7827C196.237 69.0697 194.512 69.7133 192.464 69.7133H190.212V75.3294H184.537L184.566 55.4973H192.464ZM192.464 64.2141C193.342 64.2141 194.014 63.5998 194.014 62.6053C194.014 61.6108 193.342 60.9965 192.464 60.9965H190.212V64.2141H192.464Z" fill="#21194F"/>
<path d="M207.032 70.1228H214.403V75.3294H201.387L201.416 55.4973H214.316V60.6455H207.091V62.81H213.614V67.8997H207.091L207.032 70.1228Z" fill="#21194F"/>
<path d="M161.398 65.3841C161.398 68.3092 162.422 70.7663 164.47 72.7846C166.488 74.7736 168.974 75.7682 171.929 75.7389C174.883 75.7389 177.369 74.7444 179.417 72.7553C181.435 70.737 182.43 68.2799 182.43 65.3548C182.43 62.4297 181.406 59.9727 179.388 57.9836C177.34 55.9653 174.854 55 171.9 55C168.945 55 166.459 55.9945 164.441 58.0128C162.393 60.0019 161.398 62.4882 161.398 65.3841ZM168.155 61.523C169.793 59.8849 172.631 59.5631 174.62 60.7624C174.971 60.9672 175.293 61.2304 175.585 61.523C176.521 62.4882 177.106 63.8338 177.106 65.1793C177.106 66.8466 175.761 69.8302 172.689 69.7717C172.397 69.801 172.192 70.035 172.192 70.3275V70.3567C172.192 70.5322 172.368 71.6145 172.338 71.7608C172.338 71.8485 172.28 71.9948 172.104 71.9655C172.104 71.9655 171.578 71.7023 170.291 70.7663C169.121 69.918 168.038 69.0112 167.307 67.7534C166.196 65.7936 166.576 63.0733 168.155 61.523Z" fill="#21194F"/>
<path d="M62.0681 74.6607C60.43 73.6662 58.09 73.9587 56.7152 75.3042C55.3989 76.6205 55.1649 78.7558 56.0717 80.3646C56.6567 81.3884 57.6805 82.0027 58.6165 82.6755C58.9675 82.9387 59.3477 83.1727 59.7573 83.3482C59.845 83.3775 59.9328 83.4067 60.0498 83.4067C60.1083 83.4067 60.1668 83.3482 60.1668 83.2897C60.196 83.1727 60.1668 83.0557 60.1375 82.9387C60.1083 82.7925 60.079 82.6462 60.079 82.4707V82.4415C60.079 82.2074 60.196 82.0612 60.43 82.0612C61.5416 82.0612 62.7116 81.4762 63.3844 80.5986C63.8816 79.9259 64.1156 79.1068 64.1156 78.3171C64.1156 77.2055 63.6476 76.094 62.8579 75.275C62.6239 75.0702 62.3606 74.8362 62.0681 74.6607Z" fill="#24AECB"/>
<path d="M70.1117 82.0904C71.2232 82.0904 72.3933 81.5054 73.066 80.6279C73.5633 79.9551 73.7973 79.1361 73.7973 78.3463C73.7973 77.2348 73.3293 76.1233 72.5395 75.3042C72.3055 75.0702 72.0422 74.8362 71.7497 74.6607C70.1117 73.6662 67.7716 73.9587 66.3968 75.3042C65.0805 76.6205 64.8465 78.7558 65.7533 80.3646C66.3383 81.3884 67.3621 82.0027 68.2981 82.6755C68.6491 82.9387 69.0294 83.1727 69.4389 83.3482C69.5267 83.3775 69.6144 83.4067 69.7314 83.4067C69.7899 83.4067 69.8484 83.3482 69.8484 83.2897C69.8777 83.1727 69.8484 83.0557 69.8192 82.9387C69.7899 82.7925 69.7607 82.6462 69.7607 82.4707V82.4415C69.7607 82.2367 69.8484 82.1197 70.1117 82.0904Z" fill="#24AECB"/>
<path d="M77.7473 82.6754C78.0984 82.9387 78.4786 83.1727 78.8881 83.3482C78.9759 83.3774 79.0636 83.4067 79.1806 83.4067C79.2391 83.4067 79.2976 83.3482 79.2976 83.2897C79.3269 83.1727 79.2976 83.0557 79.2684 82.9387C79.2391 82.7924 79.2099 82.6462 79.2099 82.4707V82.4414C79.2099 82.2074 79.3269 82.0611 79.5609 82.0611C80.6724 82.0611 81.8425 81.4761 82.5152 80.5986C83.0125 79.9258 83.2465 79.1068 83.2465 78.317C83.2465 77.2055 82.7785 76.094 81.9887 75.2749C81.7547 75.0409 81.4915 74.8069 81.199 74.6314C79.5609 73.6369 77.2208 73.9294 75.846 75.2749C74.5297 76.5912 74.2957 78.7265 75.2025 80.3353C75.7875 81.3884 76.8113 82.0026 77.7473 82.6754Z" fill="#24AECB"/>
<path d="M84.475 90.9242C85.5865 90.9242 86.7565 90.3391 87.4293 89.4616C87.9266 88.7888 88.1606 87.9698 88.1606 87.1801C88.1606 86.0685 87.6926 84.957 86.9028 84.138C86.6688 83.904 86.4055 83.6699 86.113 83.4944C84.475 82.4999 82.1349 82.7924 80.7601 84.138C79.4438 85.4543 79.2098 87.5896 80.1166 89.1984C80.7016 90.2221 81.7254 90.8364 82.6614 91.5092C83.0124 91.7724 83.3927 92.0064 83.8022 92.182C83.8899 92.2112 83.9777 92.2404 84.0947 92.2404C84.1532 92.2404 84.2117 92.1819 84.2117 92.1234C84.2409 92.0064 84.2117 91.8894 84.1824 91.7724C84.1532 91.6262 84.1239 91.4799 84.1239 91.3044V91.2752C84.1239 91.0997 84.2409 90.9534 84.475 90.9242Z" fill="#24AECB"/>
<path d="M75.0257 90.9242C76.1373 90.9242 77.3073 90.3391 77.9801 89.4616C78.4773 88.7888 78.7114 87.9698 78.7114 87.1801C78.7114 86.0685 78.2433 84.957 77.4536 84.138C77.2196 83.904 76.9563 83.6699 76.6638 83.4944C75.0257 82.4999 72.6857 82.7924 71.3109 84.138C69.9946 85.4543 69.7606 87.5896 70.6674 89.1984C71.2524 90.2221 72.2762 90.8364 73.2122 91.5092C73.5632 91.7724 73.9435 92.0064 74.353 92.182C74.4407 92.2112 74.5285 92.2404 74.6455 92.2404C74.704 92.2404 74.7625 92.1819 74.7625 92.1234C74.7917 92.0064 74.7625 91.8894 74.7332 91.7724C74.704 91.6262 74.6747 91.4799 74.6747 91.3044V91.2752C74.6747 91.0997 74.7917 90.9534 75.0257 90.9242Z" fill="#24AECB"/>
<path d="M33.5486 74.6607C31.9105 73.6662 29.5704 73.9587 28.1956 75.3042C26.8794 76.6205 26.6453 78.7558 27.5521 80.3646C28.1371 81.3884 29.1609 82.0027 30.097 82.6755C30.448 82.9387 30.8282 83.1727 31.2377 83.3482C31.3255 83.3775 31.4132 83.4067 31.5302 83.4067C31.5888 83.4067 31.6473 83.3482 31.6473 83.2897C31.6765 83.1727 31.6473 83.0557 31.618 82.9387C31.5887 82.7925 31.5595 82.6462 31.5595 82.4707V82.4415C31.5595 82.2074 31.6765 82.0612 31.9105 82.0612C33.022 82.0612 34.1921 81.4762 34.8649 80.5986C35.3621 79.9259 35.5961 79.1068 35.5961 78.3171C35.5961 77.2055 35.1281 76.094 34.3383 75.275C34.1043 75.0702 33.8411 74.8362 33.5486 74.6607Z" fill="#24AECB"/>
<path d="M33.5486 64.9493C31.9105 63.9547 29.5704 64.2473 28.1956 65.5928C26.8794 66.9091 26.6453 69.0444 27.5521 70.6532C28.1371 71.677 29.1609 72.2913 30.097 72.964C30.448 73.2273 30.8282 73.4613 31.2377 73.6368C31.3255 73.6661 31.4132 73.6953 31.5302 73.6953C31.5888 73.6953 31.6473 73.6368 31.6473 73.5783C31.6765 73.4613 31.6473 73.3443 31.618 73.2273C31.5887 73.081 31.5595 72.9348 31.5595 72.7593V72.73C31.5595 72.496 31.6765 72.3498 31.9105 72.3498C33.022 72.3498 34.1921 71.7647 34.8649 70.8872C35.3621 70.2144 35.5961 69.3954 35.5961 68.6056C35.5961 67.4941 35.1281 66.3826 34.3383 65.5635C34.1043 65.3295 33.8411 65.1248 33.5486 64.9493Z" fill="#24AECB"/>
<path d="M24.072 64.9493C22.4339 63.9547 20.0939 64.2473 18.7191 65.5928C17.4028 66.9091 17.1688 69.0444 18.0756 70.6532C18.6606 71.677 19.6844 72.2913 20.6204 72.964C20.9714 73.2273 21.3517 73.4613 21.7612 73.6368C21.8489 73.6661 21.9367 73.6953 22.0537 73.6953C22.1122 73.6953 22.1707 73.6368 22.1707 73.5783C22.1999 73.4613 22.1707 73.3443 22.1414 73.2273C22.1122 73.081 22.0829 72.9348 22.0829 72.7593V72.73C22.0829 72.496 22.1999 72.3498 22.4339 72.3498C23.5455 72.3498 24.7155 71.7647 25.3883 70.8872C25.8856 70.2144 26.1196 69.3954 26.1196 68.6056C26.1196 67.4941 25.6515 66.3826 24.8618 65.5635C24.657 65.3295 24.3645 65.1248 24.072 64.9493Z" fill="#24AECB"/>
<path d="M24.072 74.6607C22.4339 73.6662 20.0939 73.9587 18.7191 75.3042C17.4028 76.6205 17.1688 78.7558 18.0756 80.3646C18.6606 81.3884 19.6844 82.0027 20.6204 82.6755C20.9714 82.9387 21.3517 83.1727 21.7612 83.3482C21.8489 83.3775 21.9367 83.4067 22.0537 83.4067C22.1122 83.4067 22.1707 83.3482 22.1707 83.2897C22.1999 83.1727 22.1707 83.0557 22.1414 82.9387C22.1122 82.7925 22.0829 82.6462 22.0829 82.4707V82.4415C22.0829 82.2074 22.1999 82.0612 22.4339 82.0612C23.5455 82.0612 24.7155 81.4762 25.3883 80.5986C25.8856 79.9259 26.1196 79.1068 26.1196 78.3171C26.1196 77.2055 25.6515 76.094 24.8618 75.275C24.657 75.0702 24.3645 74.8362 24.072 74.6607Z" fill="#24AECB"/>
<path d="M49.1106 35.6107C49.4616 35.874 49.8419 36.108 50.2514 36.2835C50.3392 36.3127 50.4269 36.342 50.5439 36.342C50.6024 36.342 50.6609 36.2835 50.6609 36.225C50.6902 36.108 50.6609 35.991 50.6317 35.874C50.6024 35.7277 50.5732 35.5815 50.5732 35.406V35.3767C50.5732 35.1427 50.6902 34.9964 50.9242 34.9964C52.0357 34.9964 53.2057 34.4114 53.8785 33.5339C54.3758 32.8611 54.6098 32.0421 54.6098 31.2523C54.6098 30.1408 54.1418 29.0293 53.352 28.2102C53.118 27.9762 52.8547 27.7422 52.5622 27.5667C50.9242 26.5722 48.5841 26.8647 47.2093 28.2102C45.893 29.5265 45.659 31.6618 46.5658 33.2706C47.1801 34.3237 48.1746 34.9379 49.1106 35.6107Z" fill="#24AECB"/>
<path d="M68.2981 17.3287C68.6491 17.592 69.0294 17.826 69.4389 18.0015C69.5267 18.0308 69.6144 18.06 69.7314 18.06C69.7899 18.06 69.8484 18.0015 69.8484 17.943C69.8777 17.826 69.8484 17.709 69.8192 17.592C69.7899 17.4457 69.7607 17.2995 69.7607 17.124V17.0947C69.7607 16.8607 69.8777 16.7145 70.1117 16.7145C71.2232 16.7145 72.3933 16.1294 73.066 15.2519C73.5633 14.5791 73.7973 13.7601 73.7973 12.9703C73.7973 11.8588 73.3293 10.7473 72.5395 9.92825C72.3055 9.69424 72.0422 9.46024 71.7497 9.28473C70.1117 8.2902 67.7716 8.58271 66.3968 9.92825C65.0805 11.2445 64.8465 13.3799 65.7533 14.9887C66.3383 16.0417 67.3328 16.656 68.2981 17.3287Z" fill="#24AECB"/>
<path d="M20.9415 53.2783C21.2048 53.483 21.4973 53.6585 21.7898 53.8048C21.8483 53.834 21.9361 53.8633 21.9946 53.8633C22.0531 53.8633 22.0823 53.834 22.0823 53.7755C22.0823 53.6878 22.0823 53.6 22.0531 53.5123C22.0531 53.3953 22.0238 53.2783 22.0238 53.1613C22.0238 53.1613 22.0238 53.1613 22.0238 53.132C22.0238 52.9565 22.1116 52.8395 22.2871 52.8395C23.1354 52.8395 24.0129 52.4007 24.5394 51.728C24.9197 51.2015 25.0952 50.5872 25.0952 49.9729C25.0952 49.1246 24.7442 48.2764 24.1591 47.6621C23.9836 47.4866 23.7789 47.3111 23.5449 47.1648C22.2871 46.4043 20.5028 46.6091 19.479 47.6621C18.4845 48.6566 18.3089 50.2947 19.011 51.5232C19.4497 52.313 20.2103 52.781 20.9415 53.2783Z" fill="#24AECB"/>
<path d="M30.3888 62.6384C30.6521 62.8431 30.9446 63.0187 31.2371 63.1649C31.2956 63.1942 31.3833 63.2234 31.4418 63.2234C31.5003 63.2234 31.5296 63.1942 31.5296 63.1357C31.5296 63.0479 31.5296 62.9602 31.5003 62.8724C31.5003 62.7554 31.4711 62.6384 31.4711 62.5214C31.4711 62.5214 31.4711 62.5214 31.4711 62.4921C31.4711 62.3166 31.5588 62.1996 31.7343 62.1996C32.5826 62.1996 33.4601 61.7609 33.9867 61.0881C34.3669 60.5616 34.5424 59.9473 34.5424 59.333C34.5424 58.4848 34.1914 57.6365 33.6064 57.0222C33.4309 56.8467 33.2261 56.6712 32.9921 56.5249C31.7343 55.7644 29.95 55.9692 28.9263 57.0222C27.9317 58.0167 27.7562 59.6548 28.4582 60.8833C28.897 61.6439 29.6575 62.1119 30.3888 62.6384Z" fill="#24AECB"/>
<path d="M21.1759 44.3273C21.4392 44.5321 21.7317 44.7076 22.0242 44.8539C22.0827 44.8831 22.1704 44.9124 22.2289 44.9124C22.2874 44.9124 22.3167 44.8831 22.3167 44.8246C22.3167 44.7369 22.3167 44.6491 22.2874 44.5614C22.2874 44.4443 22.2582 44.3273 22.2582 44.2103C22.2582 44.2103 22.2582 44.2103 22.2582 44.1811C22.2582 44.0056 22.3459 43.8886 22.5215 43.8886C23.3697 43.8886 24.2473 43.4498 24.7738 42.777C25.154 42.2505 25.3295 41.6363 25.3295 41.022C25.3295 40.1737 24.9785 39.3254 24.3935 38.7112C24.218 38.5357 24.0132 38.3602 23.7792 38.2139C22.5215 37.4534 20.7371 37.6581 19.7134 38.7112C18.7188 39.7057 18.5433 41.3438 19.2453 42.5723C19.6841 43.3621 20.4446 43.8301 21.1759 44.3273Z" fill="#24AECB"/>
<path d="M78.0392 6.97397C78.3024 7.17873 78.595 7.35423 78.8875 7.50049C78.946 7.52974 79.0337 7.55899 79.0922 7.55899C79.1507 7.55899 79.18 7.52974 79.18 7.47124C79.18 7.38348 79.18 7.29573 79.1507 7.20798C79.1507 7.09097 79.1215 6.97397 79.1215 6.85697C79.1215 6.85697 79.1215 6.85697 79.1215 6.82771C79.1215 6.65221 79.2092 6.53521 79.3847 6.53521C80.233 6.53521 81.1105 6.09644 81.6371 5.42367C82.0173 4.89715 82.1928 4.28289 82.1928 3.66862C82.1928 2.82034 81.8418 1.97206 81.2568 1.35779C81.0813 1.18229 80.8765 1.00678 80.6425 0.860528C79.3847 0.129255 77.6004 0.334011 76.5766 1.35779C75.5821 2.35232 75.4066 3.99038 76.1086 5.21891C76.5474 6.00869 77.3079 6.4767 78.0392 6.97397Z" fill="#24AECB"/>
<path d="M79.414 34.2357C80.2623 34.2357 81.1398 33.797 81.6663 33.1242C82.0466 32.5977 82.2221 31.9834 82.2221 31.3692C82.2221 30.5209 81.8711 29.6726 81.2861 29.0583C81.1106 28.8828 80.9058 28.7073 80.6718 28.5611C79.414 27.8005 77.6297 28.0053 76.6059 29.0583C75.6114 30.0529 75.4359 31.6909 76.1379 32.9195C76.6059 33.7092 77.3665 34.1772 78.0685 34.6745C78.3317 34.8793 78.6243 35.0548 78.9168 35.201C78.9753 35.2303 79.063 35.2595 79.1215 35.2595C79.18 35.2595 79.2093 35.2303 79.2093 35.1718C79.2093 35.084 79.2093 34.9963 79.18 34.9085C79.18 34.7915 79.1508 34.6745 79.1508 34.5575C79.1508 34.5575 79.1508 34.5575 79.1508 34.5282C79.1508 34.3527 79.2385 34.2357 79.414 34.2357Z" fill="#24AECB"/>
<path d="M86.3458 34.6745C86.6091 34.8793 86.9016 35.0548 87.1941 35.201C87.2526 35.2303 87.3404 35.2595 87.3989 35.2595C87.4574 35.2595 87.4866 35.2303 87.4866 35.1718C87.4866 35.084 87.4866 34.9963 87.4574 34.9085C87.4574 34.7915 87.4281 34.6745 87.4281 34.5575C87.4281 34.5575 87.4281 34.5575 87.4281 34.5282C87.4281 34.3527 87.5159 34.2357 87.6914 34.2357C88.5397 34.2357 89.4172 33.797 89.9437 33.1242C90.324 32.5977 90.4995 31.9834 90.4995 31.3692C90.4995 30.5209 90.1485 29.6726 89.5634 29.0583C89.3879 28.8828 89.1832 28.7073 88.9492 28.5611C87.6914 27.8005 85.9071 28.0053 84.8833 29.0583C83.8887 30.0529 83.7132 31.6909 84.4153 32.9195C84.8833 33.68 85.6438 34.148 86.3458 34.6745Z" fill="#24AECB"/>
<path d="M49.8712 25.6069C50.1345 25.8116 50.427 25.9872 50.7195 26.1334C50.778 26.1627 50.8657 26.1919 50.9243 26.1919C50.9828 26.1919 51.012 26.1627 51.012 26.1042C51.012 26.0164 51.012 25.9286 50.9828 25.8409C50.9828 25.7239 50.9535 25.6069 50.9535 25.4899C50.9535 25.4899 50.9535 25.4899 50.9535 25.4606C50.9535 25.2851 51.0413 25.1681 51.2168 25.1681C52.065 25.1681 52.9426 24.7294 53.4691 24.0566C53.8493 23.5301 54.0248 22.9158 54.0248 22.3015C54.0248 21.4533 53.6738 20.605 53.0888 19.9907C52.9133 19.8152 52.7086 19.6397 52.4745 19.4934C51.2168 18.7329 49.4325 18.9377 48.4087 19.9907C47.4141 20.9852 47.2386 22.6233 47.9407 23.8518C48.3794 24.6416 49.1399 25.1096 49.8712 25.6069Z" fill="#24AECB"/>
<path d="M58.9083 16.3928C59.1716 16.5975 59.4641 16.773 59.7566 16.9193C59.8151 16.9485 59.9029 16.9778 59.9614 16.9778C60.0199 16.9778 60.0491 16.9485 60.0491 16.89C60.0491 16.8023 60.0491 16.7145 60.0199 16.6268C60.0199 16.5098 59.9906 16.3928 59.9906 16.2758C59.9906 16.2758 59.9906 16.2758 59.9906 16.2465C59.9906 16.071 60.0784 15.954 60.2539 15.954C61.1021 15.954 61.9797 15.5152 62.5062 14.8425C62.8865 14.316 63.062 13.7017 63.062 13.0874C63.062 12.2391 62.7109 11.3909 62.1259 10.7766C61.9504 10.6011 61.7457 10.4256 61.5117 10.2793C60.2539 9.51881 58.4696 9.72357 57.4458 10.7766C56.4513 11.7711 56.2757 13.4092 56.9778 14.6377C57.4165 15.4275 58.2063 15.8955 58.9083 16.3928Z" fill="#24AECB"/>
<path d="M88.6582 42.8356C89.5065 42.8356 90.384 42.3968 90.9105 41.7241C91.2908 41.1976 91.4663 40.5833 91.4663 39.969C91.4663 39.1207 91.1152 38.2725 90.5302 37.6582C90.3547 37.4827 90.15 37.3072 89.916 37.1609C88.6582 36.4004 86.8739 36.6052 85.8501 37.6582C84.8556 38.6527 84.68 40.2908 85.3821 41.5193C85.8501 42.3091 86.6106 42.7771 87.3126 43.2744C87.5759 43.4791 87.8684 43.6546 88.1609 43.8009C88.2194 43.8301 88.3072 43.8594 88.3657 43.8594C88.4242 43.8594 88.4534 43.8301 88.4534 43.7716C88.4534 43.6839 88.4534 43.5961 88.4242 43.5084C88.4242 43.3914 88.3949 43.2744 88.3949 43.1574C88.3949 43.1574 88.3949 43.1574 88.3949 43.1281C88.3949 42.9526 88.4827 42.8356 88.6582 42.8356Z" fill="#24AECB"/>
<path d="M50.7773 52.8395C51.6256 52.8395 52.5031 52.4007 53.0296 51.728C53.4099 51.2015 53.5854 50.5872 53.5854 49.9729C53.5854 49.1246 53.2344 48.2764 52.6494 47.6621C52.4739 47.4866 52.2691 47.3111 52.0351 47.1648C50.7773 46.4043 48.993 46.6091 47.9692 47.6621C46.9747 48.6566 46.7992 50.2947 47.5012 51.5232C47.9692 52.313 48.7297 52.781 49.4318 53.2783C49.695 53.483 49.9875 53.6585 50.28 53.8048C50.3385 53.834 50.4263 53.8633 50.4848 53.8633C50.5433 53.8633 50.5726 53.834 50.5726 53.7755C50.5726 53.6878 50.5725 53.6 50.5433 53.5123C50.5433 53.3953 50.5141 53.2783 50.5141 53.1613C50.5141 53.1613 50.5141 53.1613 50.5141 53.132C50.5141 52.9565 50.6018 52.8395 50.7773 52.8395Z" fill="#24AECB"/>
<path d="M54.9904 99.0851C55.2536 99.2899 55.5461 99.4654 55.8386 99.6117C55.8971 99.6409 55.9849 99.6702 56.0434 99.6702C56.1019 99.6702 56.1311 99.6409 56.1311 99.5824C56.1311 99.4947 56.1311 99.4069 56.1019 99.3192C56.1019 99.2022 56.0726 99.0852 56.0726 98.9681C56.0726 98.9681 56.0726 98.9681 56.0726 98.9389C56.0726 98.7634 56.1604 98.6464 56.3359 98.6464C57.1842 98.6464 58.0617 98.2076 58.5882 97.5349C58.9685 97.0083 59.144 96.3941 59.144 95.7798C59.144 94.9315 58.793 94.0833 58.208 93.469C58.0325 93.2935 57.8277 93.118 57.5937 92.9717C56.3359 92.2112 54.5516 92.416 53.5278 93.469C52.5333 94.4635 52.3578 96.1016 53.0598 97.3301C53.5278 98.1199 54.2883 98.5879 54.9904 99.0851Z" fill="#24AECB"/>
<path d="M61.541 84.5474C60.2832 83.7869 58.4989 83.9916 57.4751 85.0447C56.4806 86.0392 56.305 87.6773 57.0071 88.9058C57.4751 89.6956 58.2356 90.1636 58.9376 90.6608C59.2009 90.8656 59.4934 91.0411 59.7859 91.1874C59.8444 91.2166 59.9322 91.2459 59.9907 91.2459C60.0492 91.2459 60.0784 91.2166 60.0784 91.1581C60.0784 91.0704 60.0784 90.9826 60.0492 90.8948C60.0492 90.7778 60.0199 90.6608 60.0199 90.5438C60.0199 90.5438 60.0199 90.5438 60.0199 90.5146C60.0199 90.3391 60.1077 90.2221 60.2832 90.2221C61.1314 90.2221 62.009 89.7833 62.5355 89.1105C62.9157 88.584 63.0913 87.9698 63.0913 87.3555C63.0913 86.5072 62.7402 85.6589 62.1552 85.0447C61.9505 84.8399 61.7457 84.6937 61.541 84.5474Z" fill="#24AECB"/>
<path d="M89.4472 93.2056C88.1894 92.4451 86.4051 92.6498 85.3813 93.7029C84.3868 94.6974 84.2113 96.3355 84.9133 97.564C85.3813 98.3538 86.1418 98.8218 86.8439 99.319C87.1071 99.5238 87.3996 99.6993 87.6921 99.8456C87.7506 99.8748 87.8384 99.9041 87.8969 99.9041C87.9554 99.9041 87.9846 99.8748 87.9846 99.8163C87.9846 99.7286 87.9846 99.6408 87.9554 99.5531C87.9554 99.436 87.9261 99.3191 87.9261 99.202C87.9261 99.202 87.9261 99.202 87.9261 99.1728C87.9261 98.9973 88.0139 98.8803 88.1894 98.8803C89.0377 98.8803 89.9152 98.4415 90.4417 97.7687C90.822 97.2422 90.9975 96.628 90.9975 96.0137C90.9975 95.1654 90.6465 94.3171 90.0615 93.7029C89.8859 93.4981 89.6812 93.3519 89.4472 93.2056Z" fill="#24AECB"/>
<path d="M79.1796 98.8803C80.0279 98.8803 80.9055 98.4415 81.432 97.7687C81.8122 97.2422 81.9877 96.628 81.9877 96.0137C81.9877 95.1654 81.6367 94.3171 81.0517 93.7029C80.8762 93.5274 80.6715 93.3519 80.4374 93.2056C79.1797 92.4451 77.3953 92.6498 76.3716 93.7029C75.377 94.6974 75.2015 96.3355 75.9035 97.564C76.3716 98.3538 77.1321 98.8218 77.8341 99.319C78.0974 99.5238 78.3899 99.6993 78.6824 99.8456C78.7409 99.8748 78.8286 99.9041 78.8871 99.9041C78.9456 99.9041 78.9749 99.8748 78.9749 99.8163C78.9749 99.7286 78.9749 99.6408 78.9456 99.5531C78.9456 99.436 78.9164 99.3191 78.9164 99.202C78.9164 99.202 78.9164 99.202 78.9164 99.1728C78.8871 98.9973 78.9749 98.8803 79.1796 98.8803Z" fill="#24AECB"/>
<path d="M85.6748 101.162C85.4992 100.986 85.2945 100.811 85.0605 100.665C83.8027 99.9041 82.0184 100.109 80.9946 101.162C80.0001 102.156 79.8246 103.794 80.5266 105.023C80.9946 105.813 81.7551 106.281 82.4572 106.778C82.7204 106.983 83.0129 107.158 83.3054 107.305C83.3639 107.334 83.4517 107.363 83.5102 107.363C83.5687 107.363 83.5979 107.334 83.5979 107.275C83.5979 107.188 83.5979 107.1 83.5687 107.012C83.5687 106.895 83.5394 106.778 83.5394 106.661C83.5394 106.661 83.5394 106.661 83.5394 106.632C83.5394 106.456 83.6272 106.339 83.8027 106.339C84.651 106.339 85.5285 105.9 86.055 105.228C86.4353 104.701 86.6108 104.087 86.6108 103.473C86.6108 102.624 86.2598 101.776 85.6748 101.162Z" fill="#24AECB"/>
<path d="M89.916 75.2163C88.6582 74.4558 86.8739 74.6606 85.8501 75.7136C84.8556 76.7081 84.68 78.3462 85.3821 79.5747C85.8501 80.3645 86.6106 80.8325 87.3126 81.3298C87.5759 81.5346 87.8684 81.7101 88.1609 81.8563C88.2194 81.8856 88.3072 81.9148 88.3657 81.9148C88.4242 81.9148 88.4534 81.8856 88.4534 81.8271C88.4534 81.7393 88.4534 81.6516 88.4242 81.5638C88.4242 81.4468 88.3949 81.3298 88.3949 81.2128C88.3949 81.2128 88.3949 81.2128 88.3949 81.1836C88.3949 81.008 88.4827 80.891 88.6582 80.891C89.5065 80.891 90.384 80.4523 90.9105 79.7795C91.2908 79.253 91.4663 78.6387 91.4663 78.0244C91.4663 77.1762 91.1152 76.3279 90.5302 75.7136C90.3255 75.5381 90.1207 75.3626 89.916 75.2163Z" fill="#24AECB"/>
<path d="M72.1608 28.7366C72.7751 28.7366 73.3894 28.4148 73.7696 27.9468C74.0329 27.5665 74.1792 27.1278 74.1499 26.689C74.1499 26.0747 73.8867 25.4605 73.4771 25.051C73.3601 24.9047 73.2139 24.7877 73.0384 24.6999C72.1316 24.1442 70.8738 24.3197 70.1425 25.051C69.4405 25.753 69.2942 26.923 69.7915 27.8005C70.1133 28.3563 70.669 28.7073 71.1663 29.0583C71.3711 29.2046 71.5758 29.3216 71.7806 29.4386C71.8391 29.4678 71.8683 29.4678 71.9268 29.4678C71.9561 29.4678 71.9853 29.4386 71.9853 29.4093C71.9853 29.3508 71.9853 29.2923 71.9853 29.2338C71.9853 29.1461 71.9561 29.0583 71.9561 28.9706C71.9561 28.8243 72.0146 28.7658 72.1608 28.7366Z" fill="#24AECB"/>
<path d="M86.6096 24.7586C86.8144 24.9048 87.0191 25.0218 87.2239 25.1388C87.2824 25.1681 87.3116 25.1681 87.3701 25.1681C87.3994 25.1681 87.4286 25.1388 87.4286 25.1096C87.4286 25.0511 87.4286 24.9926 87.4286 24.9341C87.4286 24.8463 87.3994 24.7586 87.3994 24.6708C87.3994 24.5538 87.4579 24.4661 87.5749 24.4661C88.1892 24.4661 88.8034 24.1443 89.1837 23.6763C89.447 23.296 89.5932 22.8573 89.564 22.4185C89.564 21.8042 89.3007 21.19 88.8912 20.7804C88.7742 20.6342 88.6279 20.5172 88.4524 20.4294C87.5456 19.8737 86.2879 20.0492 85.5566 20.7804C84.8546 21.4825 84.7083 22.6525 85.2056 23.53C85.5566 24.0566 86.1124 24.3783 86.6096 24.7586Z" fill="#24AECB"/>
<path d="M86.6096 15.5445C86.8144 15.6907 87.0191 15.8077 87.2239 15.9247C87.2824 15.954 87.3116 15.954 87.3701 15.954C87.3994 15.954 87.4286 15.9247 87.4286 15.8955C87.4286 15.837 87.4286 15.7785 87.4286 15.72C87.4286 15.6322 87.3994 15.5445 87.3994 15.4567C87.3994 15.3397 87.4579 15.252 87.5749 15.252C88.1892 15.252 88.8034 14.9302 89.1837 14.4622C89.447 14.0819 89.5932 13.6432 89.564 13.2044C89.564 12.5901 89.3007 11.9759 88.8912 11.5663C88.7742 11.4201 88.6279 11.3031 88.4524 11.2153C87.5456 10.6596 86.2879 10.8351 85.5566 11.5663C84.8546 12.2684 84.7083 13.4384 85.2056 14.3159C85.5566 14.8424 86.1124 15.1935 86.6096 15.5445Z" fill="#24AECB"/>
<path d="M68.8245 6.12576C69.0292 6.27202 69.234 6.38902 69.4387 6.50602C69.4972 6.53528 69.5265 6.53528 69.585 6.53528C69.6142 6.53528 69.6435 6.50603 69.6435 6.47677C69.6435 6.41827 69.6435 6.35977 69.6435 6.30127C69.6435 6.21352 69.6142 6.12576 69.6142 6.03801C69.6142 5.92101 69.6727 5.83325 69.7897 5.83325C70.404 5.83325 71.0183 5.51149 71.3985 5.04348C71.6618 4.66322 71.8081 4.22445 71.7788 3.78569C71.7788 3.17142 71.5155 2.55715 71.106 2.14764C70.989 2.00138 70.8428 1.88438 70.6673 1.79663C69.7605 1.24086 68.5027 1.41636 67.7714 2.14764C67.0694 2.84966 66.9231 4.0197 67.4204 4.89722C67.7714 5.42374 68.3272 5.77475 68.8245 6.12576Z" fill="#24AECB"/>
<path d="M12.3127 47.6619C12.5175 47.8082 12.7223 47.9252 12.927 48.0422C12.9855 48.0714 13.0148 48.0714 13.0733 48.0714C13.1025 48.0714 13.1318 48.0422 13.1318 48.0129C13.1318 47.9544 13.1318 47.8959 13.1318 47.8374C13.1318 47.7497 13.1025 47.6619 13.1025 47.5741C13.1025 47.4571 13.161 47.3694 13.278 47.3694C13.8923 47.3694 14.5066 47.0476 14.8868 46.5796C15.1501 46.1994 15.2963 45.7606 15.2671 45.3218C15.2671 44.7076 15.0038 44.0933 14.5943 43.6838C14.4773 43.5375 14.3311 43.4205 14.1555 43.3328C13.2488 42.777 11.991 42.9525 11.2597 43.6838C10.5577 44.3858 10.4114 45.5558 10.9087 46.4334C11.2597 46.9599 11.7862 47.2816 12.3127 47.6619Z" fill="#24AECB"/>
<path d="M96.2923 72.5544C95.3855 71.9987 94.1277 72.1742 93.3964 72.9054C92.6944 73.6075 92.5481 74.7775 93.0454 75.655C93.3672 76.2108 93.9229 76.5618 94.4202 76.9128C94.625 77.0591 94.8297 77.1761 95.0345 77.2931C95.093 77.3223 95.1222 77.3223 95.1807 77.3223C95.21 77.3223 95.2392 77.2931 95.2392 77.2638C95.2392 77.2053 95.2392 77.1468 95.2392 77.0883C95.2392 77.0006 95.21 76.9128 95.21 76.8251C95.21 76.7081 95.2685 76.6203 95.3855 76.6203C95.9998 76.6203 96.614 76.2985 96.9943 75.8305C97.2576 75.4503 97.4038 75.0115 97.3746 74.5727C97.3746 73.9585 97.1113 73.3442 96.7018 72.9347C96.614 72.7592 96.4678 72.6422 96.2923 72.5544Z" fill="#24AECB"/>
<path d="M97.3443 62.4045C97.2273 62.2582 97.0811 62.1412 96.9055 62.0535C95.9988 61.4977 94.741 61.6732 94.0097 62.4045C93.3077 63.1065 93.1614 64.2765 93.6587 65.1541C93.9805 65.7098 94.5362 66.0608 95.0335 66.4118C95.2382 66.5581 95.443 66.6751 95.6478 66.7921C95.7063 66.8214 95.7355 66.8214 95.794 66.8214C95.8233 66.8214 95.8525 66.7921 95.8525 66.7629C95.8525 66.7044 95.8525 66.6459 95.8525 66.5873C95.8525 66.4996 95.8233 66.4118 95.8233 66.3241C95.8233 66.2071 95.8818 66.1193 95.9988 66.1193C96.613 66.1193 97.2273 65.7976 97.6076 65.3296C97.8708 64.9493 98.0171 64.5105 97.9878 64.0718C98.0171 63.4575 97.7831 62.8432 97.3443 62.4045Z" fill="#24AECB"/>
<path d="M89.6809 106.807C88.7742 106.252 87.5164 106.427 86.7851 107.158C86.0831 107.86 85.9368 109.03 86.4341 109.908C86.7558 110.464 87.3116 110.815 87.8089 111.166C88.0136 111.312 88.2184 111.429 88.4231 111.546C88.4816 111.575 88.5109 111.575 88.5694 111.575C88.5987 111.575 88.6279 111.546 88.6279 111.517C88.6279 111.458 88.6279 111.4 88.6279 111.341C88.6279 111.253 88.5987 111.166 88.5987 111.078C88.5987 110.961 88.6572 110.873 88.7742 110.873C89.3884 110.873 90.0027 110.551 90.383 110.083C90.6462 109.703 90.7925 109.264 90.7632 108.826C90.7632 108.211 90.5 107.597 90.0905 107.188C89.9735 107.041 89.8272 106.924 89.6809 106.807Z" fill="#24AECB"/>
<path d="M61.0442 100.84C60.1374 100.284 58.8797 100.46 58.1484 101.191C57.4464 101.893 57.3001 103.063 57.7974 103.941C58.1191 104.496 58.6749 104.847 59.1722 105.198C59.3769 105.345 59.5817 105.462 59.7864 105.579C59.8449 105.608 59.8742 105.608 59.9327 105.608C59.9619 105.608 59.9912 105.579 59.9912 105.55C59.9912 105.491 59.9912 105.432 59.9912 105.374C59.9912 105.286 59.9619 105.198 59.9619 105.111C59.9619 104.994 60.0204 104.906 60.1374 104.906C60.7517 104.906 61.366 104.584 61.7462 104.116C62.0095 103.736 62.1558 103.297 62.1265 102.858C62.1265 102.244 61.8632 101.63 61.4537 101.22C61.3367 101.074 61.1905 100.957 61.0442 100.84Z" fill="#24AECB"/>
<path d="M57.1243 106.807C56.2175 106.252 54.9597 106.427 54.2285 107.158C53.5264 107.86 53.3802 109.03 53.8774 109.908C54.1992 110.464 54.755 110.815 55.2522 111.166C55.457 111.312 55.6618 111.429 55.8665 111.546C55.925 111.575 55.9543 111.575 56.0128 111.575C56.042 111.575 56.0713 111.546 56.0713 111.517C56.0713 111.458 56.0713 111.4 56.0713 111.341C56.0713 111.253 56.042 111.166 56.042 111.078C56.042 110.961 56.1005 110.873 56.2175 110.873C56.8318 110.873 57.4461 110.551 57.8263 110.083C58.0896 109.703 58.2358 109.264 58.2066 108.826C58.2066 108.211 57.9433 107.597 57.5338 107.188C57.4461 107.041 57.2998 106.924 57.1243 106.807Z" fill="#24AECB"/>
<path d="M41.7688 90.6902C40.8621 90.1344 39.6043 90.3099 38.873 91.0412C38.171 91.7432 38.0247 92.9133 38.522 93.7908C38.8437 94.3465 39.3995 94.6976 39.8968 95.0486C40.1015 95.1948 40.3063 95.3118 40.511 95.4288C40.5695 95.4581 40.5988 95.4581 40.6573 95.4581C40.6865 95.4581 40.7158 95.4288 40.7158 95.3996C40.7158 95.3411 40.7158 95.2826 40.7158 95.2241C40.7158 95.1363 40.6865 95.0486 40.6865 94.9608C40.6865 94.8438 40.745 94.7561 40.8621 94.7561C41.4763 94.7561 42.0906 94.4343 42.4709 93.9663C42.7341 93.586 42.8804 93.1473 42.8511 92.7085C42.8511 92.0942 42.5879 91.48 42.1783 91.0704C42.0906 90.9242 41.9443 90.8072 41.7688 90.6902Z" fill="#24AECB"/>
<path d="M41.7688 97.5933C40.8621 97.0375 39.6043 97.213 38.873 97.9443C38.171 98.6463 38.0247 99.8163 38.522 100.694C38.8437 101.25 39.3995 101.601 39.8968 101.952C40.1015 102.098 40.3063 102.215 40.511 102.332C40.5695 102.361 40.5988 102.361 40.6573 102.361C40.6865 102.361 40.7158 102.332 40.7158 102.303C40.7158 102.244 40.7158 102.186 40.7158 102.127C40.7158 102.039 40.6865 101.952 40.6865 101.864C40.6865 101.747 40.745 101.659 40.8621 101.659C41.4763 101.659 42.0906 101.337 42.4709 100.869C42.7341 100.489 42.8804 100.05 42.8511 99.6116C42.8511 98.9973 42.5879 98.383 42.1783 97.9735C42.0906 97.8273 41.9443 97.681 41.7688 97.5933Z" fill="#24AECB"/>
<path d="M52.5915 74.6607C50.9535 73.6662 48.6134 73.9587 47.2386 75.3042C45.9223 76.6205 45.6883 78.7558 46.5951 80.3646C47.1801 81.3884 48.2039 82.0027 49.1399 82.6755C49.4909 82.9387 49.8712 83.1727 50.2807 83.3482C50.3685 83.3775 50.4562 83.4067 50.5732 83.4067C50.6317 83.4067 50.6902 83.3482 50.6902 83.2897C50.7195 83.1727 50.6902 83.0557 50.661 82.9387C50.6317 82.7925 50.6025 82.6462 50.6025 82.4707V82.4415C50.6025 82.2074 50.7195 82.0612 50.9535 82.0612C52.065 82.0612 53.2351 81.4762 53.9078 80.5986C54.4051 79.9259 54.6391 79.1068 54.6391 78.3171C54.6391 77.2055 54.1711 76.094 53.3813 75.275C53.1766 75.0702 52.884 74.8362 52.5915 74.6607Z" fill="#24AECB"/>
<path d="M52.9997 83.4944C51.3617 82.4999 49.0216 82.7924 47.6468 84.138C46.3305 85.4543 46.0965 87.5896 47.0033 89.1984C47.5883 90.2221 48.6121 90.8364 49.5481 91.5092C49.8991 91.7724 50.2794 92.0064 50.6889 92.182C50.7767 92.2112 50.8644 92.2404 50.9814 92.2404C51.0399 92.2404 51.0984 92.1819 51.0984 92.1234C51.1277 92.0064 51.0984 91.8894 51.0692 91.7724C51.0399 91.6262 51.0107 91.4799 51.0107 91.3044V91.2752C51.0107 91.0412 51.1277 90.8949 51.3617 90.8949C52.4732 90.8949 53.6433 90.3099 54.316 89.4324C54.8133 88.7596 55.0473 87.9406 55.0473 87.1508C55.0473 86.0393 54.5793 84.9277 53.7895 84.1087C53.5848 83.904 53.2922 83.6699 52.9997 83.4944Z" fill="#24AECB"/>
<path d="M62.0681 64.9493C60.43 63.9547 58.09 64.2473 56.7152 65.5928C55.3989 66.9091 55.1649 69.0444 56.0717 70.6532C56.6567 71.677 57.6805 72.2913 58.6165 72.964C58.9675 73.2273 59.3477 73.4613 59.7573 73.6368C59.845 73.6661 59.9328 73.6953 60.0498 73.6953C60.1083 73.6953 60.1668 73.6368 60.1668 73.5783C60.196 73.4613 60.1668 73.3443 60.1375 73.2273C60.1083 73.081 60.079 72.9348 60.079 72.7593V72.73C60.079 72.496 60.196 72.3498 60.43 72.3498C61.5416 72.3498 62.7116 71.7647 63.3844 70.8872C63.8816 70.2144 64.1156 69.3954 64.1156 68.6056C64.1156 67.4941 63.6476 66.3826 62.8579 65.5635C62.6239 65.3295 62.3606 65.1248 62.0681 64.9493Z" fill="#24AECB"/>
<path d="M62.0681 55.5306C60.43 54.536 58.09 54.8286 56.7152 56.1741C55.3989 57.4904 55.1649 59.6257 56.0717 61.2345C56.6567 62.2583 57.6805 62.8726 58.6165 63.5453C58.9675 63.8086 59.3477 64.0426 59.7573 64.2181C59.845 64.2474 59.9328 64.2766 60.0498 64.2766C60.1083 64.2766 60.1668 64.2181 60.1668 64.1596C60.196 64.0426 60.1668 63.9256 60.1375 63.8086C60.1083 63.6623 60.079 63.5161 60.079 63.3406V63.3113C60.079 63.0773 60.196 62.9311 60.43 62.9311C61.5416 62.9311 62.7116 62.346 63.3844 61.4685C63.8816 60.7957 64.1156 59.9767 64.1156 59.1869C64.1156 58.0754 63.6476 56.9639 62.8579 56.1448C62.6239 55.9401 62.3606 55.7061 62.0681 55.5306Z" fill="#24AECB"/>
<path d="M62.0681 36.9854C60.43 35.9909 58.09 36.2834 56.7152 37.6289C55.3989 38.9452 55.1649 41.0805 56.0717 42.6893C56.6567 43.7131 57.6805 44.3274 58.6165 45.0002C58.9675 45.2634 59.3477 45.4974 59.7573 45.6729C59.845 45.7022 59.9328 45.7314 60.0498 45.7314C60.1083 45.7314 60.1668 45.6729 60.1668 45.6144C60.196 45.4974 60.1668 45.3804 60.1375 45.2634C60.1083 45.1172 60.079 44.9709 60.079 44.7954V44.7662C60.079 44.5321 60.196 44.3859 60.43 44.3859C61.5416 44.3859 62.7116 43.8009 63.3844 42.9233C63.8816 42.2506 64.1156 41.4316 64.1156 40.6418C64.1156 39.5302 63.6476 38.4187 62.8579 37.5997C62.6239 37.3657 62.3606 37.1609 62.0681 36.9854Z" fill="#24AECB"/>
<path d="M62.0681 27.5958C60.43 26.6012 58.09 26.8937 56.7152 28.2393C55.3989 29.5556 55.1649 31.6909 56.0717 33.2997C56.6567 34.3235 57.6805 34.9377 58.6165 35.6105C58.9675 35.8738 59.3477 36.1078 59.7573 36.2833C59.845 36.3125 59.9328 36.3418 60.0498 36.3418C60.1083 36.3418 60.1668 36.2833 60.1668 36.2248C60.196 36.1078 60.1668 35.9908 60.1375 35.8738C60.1083 35.7275 60.079 35.5813 60.079 35.4058V35.3765C60.079 35.1425 60.196 34.9962 60.43 34.9962C61.5416 34.9962 62.7116 34.4112 63.3844 33.5337C63.8816 32.8609 64.1156 32.0419 64.1156 31.2521C64.1156 30.1406 63.6476 29.0291 62.8579 28.21C62.6239 27.976 62.3606 27.7713 62.0681 27.5958Z" fill="#24AECB"/>
<path d="M62.0681 18.5281C60.43 17.5336 58.09 17.8261 56.7152 19.1717C55.3989 20.4879 55.1649 22.6233 56.0717 24.2321C56.6567 25.2558 57.6805 25.8701 58.6165 26.5429C58.9675 26.8061 59.3477 27.0402 59.7573 27.2157C59.845 27.2449 59.9328 27.2742 60.0498 27.2742C60.1083 27.2742 60.1668 27.2157 60.1668 27.1572C60.196 27.0402 60.1668 26.9231 60.1375 26.8061C60.1083 26.6599 60.079 26.5136 60.079 26.3381V26.3089C60.079 26.0749 60.196 25.9286 60.43 25.9286C61.5416 25.9286 62.7116 25.3436 63.3844 24.4661C63.8816 23.7933 64.1156 22.9743 64.1156 22.1845C64.1156 21.073 63.6476 19.9614 62.8579 19.1424C62.6239 18.9377 62.3606 18.7036 62.0681 18.5281Z" fill="#24AECB"/>
<path d="M81.1697 9.31403C79.5316 8.3195 77.1915 8.612 75.8167 9.95755C74.5004 11.2738 74.2664 13.4092 75.1732 15.018C75.7582 16.0417 76.782 16.656 77.718 17.3288C78.0691 17.592 78.4493 17.826 78.8588 18.0016C78.9466 18.0308 79.0343 18.0601 79.1513 18.0601C79.2098 18.0601 79.2683 18.0016 79.2683 17.9431C79.2976 17.826 79.2683 17.709 79.2391 17.592C79.2098 17.4458 79.1806 17.2995 79.1806 17.124V17.0948C79.1806 16.8608 79.2976 16.7145 79.5316 16.7145C80.6431 16.7145 81.8132 16.1295 82.486 15.252C82.9832 14.5792 83.2172 13.7602 83.2172 12.9704C83.2172 11.8589 82.7492 10.7473 81.9594 9.9283C81.7254 9.72354 81.4622 9.48953 81.1697 9.31403Z" fill="#24AECB"/>
<path d="M81.1697 18.5281C79.5316 17.5336 77.1915 17.8261 75.8167 19.1717C74.5004 20.4879 74.2664 22.6233 75.1732 24.2321C75.7582 25.2558 76.782 25.8701 77.718 26.5429C78.0691 26.8061 78.4493 27.0402 78.8588 27.2157C78.9466 27.2449 79.0343 27.2742 79.1513 27.2742C79.2098 27.2742 79.2683 27.2157 79.2683 27.1572C79.2976 27.0402 79.2683 26.9231 79.2391 26.8061C79.2098 26.6599 79.1806 26.5136 79.1806 26.3381V26.3089C79.1806 26.0749 79.2976 25.9286 79.5316 25.9286C80.6431 25.9286 81.8132 25.3436 82.486 24.4661C82.9832 23.7933 83.2172 22.9743 83.2172 22.1845C83.2172 21.073 82.7492 19.9614 81.9594 19.1424C81.7254 18.9377 81.4622 18.7036 81.1697 18.5281Z" fill="#24AECB"/>
<path d="M81.1697 36.9854C79.5316 35.9909 77.1915 36.2834 75.8167 37.6289C74.5004 38.9452 74.2664 41.0805 75.1732 42.6893C75.7582 43.7131 76.782 44.3274 77.718 45.0002C78.0691 45.2634 78.4493 45.4974 78.8588 45.6729C78.9466 45.7022 79.0343 45.7314 79.1513 45.7314C79.2098 45.7314 79.2683 45.6729 79.2683 45.6144C79.2976 45.4974 79.2683 45.3804 79.2391 45.2634C79.2098 45.1172 79.1806 44.9709 79.1806 44.7954V44.7662C79.1806 44.5321 79.2976 44.3859 79.5316 44.3859C80.6431 44.3859 81.8132 43.8009 82.486 42.9233C82.9832 42.2506 83.2172 41.4316 83.2172 40.6418C83.2172 39.5302 82.7492 38.4187 81.9594 37.5997C81.7254 37.3657 81.4622 37.1609 81.1697 36.9854Z" fill="#24AECB"/>
<path d="M81.1697 46.1995C79.5316 45.205 77.1915 45.4975 75.8167 46.843C74.5004 48.1593 74.2664 50.2947 75.1732 51.9035C75.7582 52.9273 76.782 53.5415 77.718 54.2143C78.0691 54.4776 78.4493 54.7116 78.8588 54.8871C78.9466 54.9163 79.0343 54.9456 79.1513 54.9456C79.2098 54.9456 79.2683 54.8871 79.2683 54.8286C79.2976 54.7116 79.2683 54.5946 79.2391 54.4776C79.2098 54.3313 79.1806 54.185 79.1806 54.0095V53.9803C79.1806 53.7463 79.2976 53.6 79.5316 53.6C80.6431 53.6 81.8132 53.015 82.486 52.1375C82.9832 51.4647 83.2172 50.6457 83.2172 49.8559C83.2172 48.7444 82.7492 47.6328 81.9594 46.8138C81.7254 46.609 81.4622 46.375 81.1697 46.1995Z" fill="#24AECB"/>
<path d="M90.7048 46.1995C89.0668 45.205 86.7267 45.4975 85.3519 46.843C84.0356 48.1593 83.8016 50.2947 84.7084 51.9035C85.2934 52.9273 86.3172 53.5415 87.2532 54.2143C87.6042 54.4776 87.9845 54.7116 88.394 54.8871C88.4817 54.9163 88.5695 54.9456 88.6865 54.9456C88.745 54.9456 88.8035 54.8871 88.8035 54.8286C88.8328 54.7116 88.8035 54.5946 88.7743 54.4776C88.745 54.3313 88.7158 54.185 88.7158 54.0095V53.9803C88.7158 53.7463 88.8328 53.6 89.0668 53.6C90.1783 53.6 91.3483 53.015 92.0211 52.1375C92.5184 51.4647 92.7524 50.6457 92.7524 49.8559C92.7524 48.7444 92.2844 47.6328 91.4946 46.8138C91.2606 46.609 90.9973 46.375 90.7048 46.1995Z" fill="#24AECB"/>
<path d="M90.7048 55.5306C89.0668 54.536 86.7267 54.8286 85.3519 56.1741C84.0356 57.4904 83.8016 59.6257 84.7084 61.2345C85.2934 62.2583 86.3172 62.8726 87.2532 63.5453C87.6042 63.8086 87.9845 64.0426 88.394 64.2181C88.4817 64.2474 88.5695 64.2766 88.6865 64.2766C88.745 64.2766 88.8035 64.2181 88.8035 64.1596C88.8328 64.0426 88.8035 63.9256 88.7743 63.8086C88.745 63.6623 88.7158 63.5161 88.7158 63.3406V63.3113C88.7158 63.0773 88.8328 62.9311 89.0668 62.9311C90.1783 62.9311 91.3483 62.346 92.0211 61.4685C92.5184 60.7957 92.7524 59.9767 92.7524 59.1869C92.7524 58.0754 92.2844 56.9639 91.4946 56.1448C91.2606 55.9401 90.9973 55.7061 90.7048 55.5306Z" fill="#24AECB"/>
<path d="M90.7048 64.9493C89.0668 63.9547 86.7267 64.2473 85.3519 65.5928C84.0356 66.9091 83.8016 69.0444 84.7084 70.6532C85.2934 71.677 86.3172 72.2913 87.2532 72.964C87.6042 73.2273 87.9845 73.4613 88.394 73.6368C88.4817 73.6661 88.5695 73.6953 88.6865 73.6953C88.745 73.6953 88.8035 73.6368 88.8035 73.5783C88.8328 73.4613 88.8035 73.3443 88.7743 73.2273C88.745 73.081 88.7158 72.9348 88.7158 72.7593V72.73C88.7158 72.496 88.8328 72.3498 89.0668 72.3498C90.1783 72.3498 91.3483 71.7647 92.0211 70.8872C92.5184 70.2144 92.7524 69.3954 92.7524 68.6056C92.7524 67.4941 92.2844 66.3826 91.4946 65.5635C91.2606 65.3295 90.9973 65.1248 90.7048 64.9493Z" fill="#24AECB"/>
<path d="M81.1697 55.5306C79.5316 54.536 77.1915 54.8286 75.8167 56.1741C74.5004 57.4904 74.2664 59.6257 75.1732 61.2345C75.7582 62.2583 76.782 62.8726 77.718 63.5453C78.0691 63.8086 78.4493 64.0426 78.8588 64.2181C78.9466 64.2474 79.0343 64.2766 79.1513 64.2766C79.2098 64.2766 79.2683 64.2181 79.2683 64.1596C79.2976 64.0426 79.2683 63.9256 79.2391 63.8086C79.2098 63.6623 79.1806 63.5161 79.1806 63.3406V63.3113C79.1806 63.0773 79.2976 62.9311 79.5316 62.9311C80.6431 62.9311 81.8132 62.346 82.486 61.4685C82.9832 60.7957 83.2172 59.9767 83.2172 59.1869C83.2172 58.0754 82.7492 56.9639 81.9594 56.1448C81.7254 55.9401 81.4622 55.7061 81.1697 55.5306Z" fill="#24AECB"/>
<path d="M81.1697 64.9493C79.5316 63.9547 77.1915 64.2473 75.8167 65.5928C74.5004 66.9091 74.2664 69.0444 75.1732 70.6532C75.7582 71.677 76.782 72.2913 77.718 72.964C78.0691 73.2273 78.4493 73.4613 78.8588 73.6368C78.9466 73.6661 79.0343 73.6953 79.1513 73.6953C79.2098 73.6953 79.2683 73.6368 79.2683 73.5783C79.2976 73.4613 79.2683 73.3443 79.2391 73.2273C79.2098 73.081 79.1806 72.9348 79.1806 72.7593V72.73C79.1806 72.496 79.2976 72.3498 79.5316 72.3498C80.6431 72.3498 81.8132 71.7647 82.486 70.8872C82.9832 70.2144 83.2172 69.3954 83.2172 68.6056C83.2172 67.4941 82.7492 66.3826 81.9594 65.5635C81.7254 65.3295 81.4622 65.1248 81.1697 64.9493Z" fill="#24AECB"/>
<path d="M71.7204 64.9493C70.0824 63.9547 67.7423 64.2473 66.3675 65.5928C65.0512 66.9091 64.8172 69.0444 65.724 70.6532C66.309 71.677 67.3328 72.2913 68.2688 72.964C68.6198 73.2273 69.0001 73.4613 69.4096 73.6368C69.4974 73.6661 69.5851 73.6953 69.7021 73.6953C69.7606 73.6953 69.8191 73.6368 69.8191 73.5783C69.8484 73.4613 69.8191 73.3443 69.7899 73.2273C69.7606 73.081 69.7314 72.9348 69.7314 72.7593V72.73C69.7314 72.496 69.8484 72.3498 70.0824 72.3498C71.1939 72.3498 72.364 71.7647 73.0367 70.8872C73.534 70.2144 73.768 69.3954 73.768 68.6056C73.768 67.4941 73.3 66.3826 72.5102 65.5635C72.2762 65.3295 72.013 65.1248 71.7204 64.9493Z" fill="#24AECB"/>
<path d="M71.7204 55.5306C70.0824 54.536 67.7423 54.8286 66.3675 56.1741C65.0512 57.4904 64.8172 59.6257 65.724 61.2345C66.309 62.2583 67.3328 62.8726 68.2688 63.5453C68.6198 63.8086 69.0001 64.0426 69.4096 64.2181C69.4974 64.2474 69.5851 64.2766 69.7021 64.2766C69.7606 64.2766 69.8191 64.2181 69.8191 64.1596C69.8484 64.0426 69.8191 63.9256 69.7899 63.8086C69.7606 63.6623 69.7314 63.5161 69.7314 63.3406V63.3113C69.7314 63.0773 69.8484 62.9311 70.0824 62.9311C71.1939 62.9311 72.364 62.346 73.0367 61.4685C73.534 60.7957 73.768 59.9767 73.768 59.1869C73.768 58.0754 73.3 56.9639 72.5102 56.1448C72.2762 55.9401 72.013 55.7061 71.7204 55.5306Z" fill="#24AECB"/>
<path d="M71.7204 46.1995C70.0824 45.205 67.7423 45.4975 66.3675 46.843C65.0512 48.1593 64.8172 50.2947 65.724 51.9035C66.309 52.9273 67.3328 53.5415 68.2688 54.2143C68.6198 54.4776 69.0001 54.7116 69.4096 54.8871C69.4974 54.9163 69.5851 54.9456 69.7021 54.9456C69.7606 54.9456 69.8191 54.8871 69.8191 54.8286C69.8484 54.7116 69.8191 54.5946 69.7899 54.4776C69.7606 54.3313 69.7314 54.185 69.7314 54.0095V53.9803C69.7314 53.7463 69.8484 53.6 70.0824 53.6C71.1939 53.6 72.364 53.015 73.0367 52.1375C73.534 51.4647 73.768 50.6457 73.768 49.8559C73.768 48.7444 73.3 47.6328 72.5102 46.8138C72.2762 46.609 72.013 46.375 71.7204 46.1995Z" fill="#24AECB"/>
<path d="M52.5622 64.9493C50.9242 63.9547 48.5841 64.2473 47.2093 65.5928C45.893 66.9091 45.659 69.0444 46.5658 70.6532C47.1508 71.677 48.1746 72.2913 49.1106 72.964C49.4616 73.2273 49.8419 73.4613 50.2514 73.6368C50.3392 73.6661 50.4269 73.6953 50.5439 73.6953C50.6024 73.6953 50.6609 73.6368 50.6609 73.5783C50.6902 73.4613 50.6609 73.3443 50.6317 73.2273C50.6024 73.081 50.5732 72.9348 50.5732 72.7593V72.73C50.5732 72.496 50.6902 72.3498 50.9242 72.3498C52.0357 72.3498 53.2057 71.7647 53.8785 70.8872C54.3758 70.2144 54.6098 69.3954 54.6098 68.6056C54.6098 67.4941 54.1418 66.3826 53.352 65.5635C53.118 65.3295 52.8547 65.1248 52.5622 64.9493Z" fill="#24AECB"/>
<path d="M52.5622 55.5306C50.9242 54.536 48.5841 54.8286 47.2093 56.1741C45.893 57.4904 45.659 59.6257 46.5658 61.2345C47.1508 62.2583 48.1746 62.8726 49.1106 63.5453C49.4616 63.8086 49.8419 64.0426 50.2514 64.2181C50.3392 64.2474 50.4269 64.2766 50.5439 64.2766C50.6024 64.2766 50.6609 64.2181 50.6609 64.1596C50.6902 64.0426 50.6609 63.9256 50.6317 63.8086C50.6024 63.6623 50.5732 63.5161 50.5732 63.3406V63.3113C50.5732 63.0773 50.6902 62.9311 50.9242 62.9311C52.0357 62.9311 53.2057 62.346 53.8785 61.4685C54.3758 60.7957 54.6098 59.9767 54.6098 59.1869C54.6098 58.0754 54.1418 56.9639 53.352 56.1448C53.118 55.9401 52.8547 55.7061 52.5622 55.5306Z" fill="#24AECB"/>
<path d="M43.0544 55.5306C41.4164 54.536 39.0763 54.8286 37.7015 56.1741C36.3852 57.4904 36.1512 59.6257 37.058 61.2345C37.643 62.2583 38.6668 62.8726 39.6028 63.5453C39.9538 63.8086 40.3341 64.0426 40.7436 64.2181C40.8313 64.2474 40.9191 64.2766 41.0361 64.2766C41.0946 64.2766 41.1531 64.2181 41.1531 64.1596C41.1824 64.0426 41.1531 63.9256 41.1239 63.8086C41.0946 63.6623 41.0654 63.5161 41.0654 63.3406V63.3113C41.0654 63.0773 41.1824 62.9311 41.4164 62.9311C42.5279 62.9311 43.6979 62.346 44.3707 61.4685C44.868 60.7957 45.102 59.9767 45.102 59.1869C45.102 58.0754 44.634 56.9639 43.8442 56.1448C43.6102 55.9401 43.3469 55.7061 43.0544 55.5306Z" fill="#24AECB"/>
<path d="M43.0544 64.9493C41.4164 63.9547 39.0763 64.2473 37.7015 65.5928C36.3852 66.9091 36.1512 69.0444 37.058 70.6532C37.643 71.677 38.6668 72.2913 39.6028 72.964C39.9538 73.2273 40.3341 73.4613 40.7436 73.6368C40.8313 73.6661 40.9191 73.6953 41.0361 73.6953C41.0946 73.6953 41.1531 73.6368 41.1531 73.5783C41.1824 73.4613 41.1531 73.3443 41.1239 73.2273C41.0946 73.081 41.0654 72.9348 41.0654 72.7593V72.73C41.0654 72.496 41.1824 72.3498 41.4164 72.3498C42.5279 72.3498 43.6979 71.7647 44.3707 70.8872C44.868 70.2144 45.102 69.3954 45.102 68.6056C45.102 67.4941 44.634 66.3826 43.8442 65.5635C43.6102 65.3295 43.3469 65.1248 43.0544 64.9493Z" fill="#24AECB"/>
<path d="M43.1423 74.6607C41.5043 73.6662 39.1642 73.9587 37.7894 75.3042C36.4731 76.6205 36.2391 78.7558 37.1459 80.3646C37.7309 81.3884 38.7547 82.0027 39.6907 82.6755C40.0417 82.9387 40.422 83.1727 40.8315 83.3482C40.9192 83.3775 41.007 83.4067 41.124 83.4067C41.1825 83.4067 41.241 83.3482 41.241 83.2897C41.2703 83.1727 41.241 83.0557 41.2118 82.9387C41.1825 82.7925 41.1533 82.6462 41.1533 82.4707V82.4415C41.1533 82.2074 41.2703 82.0612 41.5043 82.0612C42.6158 82.0612 43.7858 81.4762 44.4586 80.5986C44.9559 79.9259 45.1899 79.1068 45.1899 78.3171C45.1899 77.2055 44.7219 76.094 43.9321 75.275C43.6981 75.0702 43.4348 74.8362 43.1423 74.6607Z" fill="#24AECB"/>
<path d="M17.0798 82.0904C15.4418 81.0959 13.1017 81.3884 11.7269 82.7339C10.4106 84.0502 10.1766 86.1855 11.0834 87.7943C11.6684 88.8181 12.6922 89.4324 13.6282 90.1052C13.9792 90.3684 14.3595 90.6024 14.769 90.7779C14.8567 90.8072 14.9445 90.8364 15.0615 90.8364C15.12 90.8364 15.1785 90.7779 15.1785 90.7194C15.2078 90.6024 15.1785 90.4854 15.1493 90.3684C15.12 90.2222 15.0907 90.0759 15.0907 89.9004V89.8712C15.0907 89.6371 15.2078 89.4909 15.4418 89.4909C16.5533 89.4909 17.7233 88.9059 18.3961 88.0283C18.8934 87.3556 19.1274 86.5365 19.1274 85.7468C19.1274 84.6352 18.6594 83.5237 17.8696 82.7047C17.6648 82.4999 17.3723 82.2659 17.0798 82.0904Z" fill="#24AECB"/>
<path d="M7.51536 91.5091C5.87731 90.5146 3.53723 90.8071 2.16244 92.1526C0.846148 93.4689 0.61214 95.6042 1.51892 97.213C2.10394 98.2368 3.12772 98.8511 4.06375 99.5239C4.41476 99.7871 4.79502 100.021 5.20453 100.197C5.29229 100.226 5.38004 100.255 5.49704 100.255C5.55555 100.255 5.61405 100.197 5.61405 100.138C5.6433 100.021 5.61405 99.9041 5.5848 99.7871C5.55555 99.6409 5.52629 99.4946 5.52629 99.3191V99.2898C5.52629 99.0558 5.6433 98.9096 5.87731 98.9096C6.98884 98.9096 8.15888 98.3246 8.83165 97.447C9.32891 96.7743 9.56292 95.9552 9.56292 95.1655C9.56292 94.0539 9.09491 92.9424 8.30513 92.1234C8.07113 91.8894 7.80787 91.6846 7.51536 91.5091Z" fill="#24AECB"/>
<path d="M7.51536 82.0904C5.87731 81.0959 3.53723 81.3884 2.16244 82.7339C0.846148 84.0502 0.61214 86.1855 1.51892 87.7943C2.10394 88.8181 3.12772 89.4324 4.06375 90.1052C4.41476 90.3684 4.79502 90.6024 5.20453 90.7779C5.29229 90.8072 5.38004 90.8364 5.49704 90.8364C5.55555 90.8364 5.61405 90.7779 5.61405 90.7194C5.6433 90.6024 5.61405 90.4854 5.5848 90.3684C5.55555 90.2222 5.52629 90.0759 5.52629 89.9004V89.8712C5.52629 89.6371 5.6433 89.4909 5.87731 89.4909C6.98884 89.4909 8.15888 88.9059 8.83165 88.0283C9.32891 87.3556 9.56292 86.5365 9.56292 85.7468C9.56292 84.6352 9.09491 83.5237 8.30513 82.7047C8.07113 82.4999 7.80787 82.2659 7.51536 82.0904Z" fill="#24AECB"/>
<path d="M16.2031 92.2989C14.9453 91.5383 13.161 91.7431 12.1372 92.7961C11.1427 93.7907 10.9672 95.4287 11.6692 96.6572C12.1372 97.447 12.8977 97.915 13.5997 98.4123C13.863 98.6171 14.1555 98.7926 14.448 98.9388C14.5065 98.9681 14.5943 98.9973 14.6528 98.9973C14.7113 98.9973 14.7405 98.9681 14.7405 98.9096C14.7405 98.8218 14.7405 98.7341 14.7113 98.6463C14.7113 98.5293 14.682 98.4123 14.682 98.2953C14.682 98.2953 14.682 98.2953 14.682 98.266C14.682 98.0905 14.7698 97.9735 14.9453 97.9735C15.7936 97.9735 16.6711 97.5348 17.1976 96.862C17.5779 96.3355 17.7534 95.7212 17.7534 95.107C17.7534 94.2587 17.4024 93.4104 16.8173 92.7961C16.6418 92.5914 16.4371 92.4451 16.2031 92.2989Z" fill="#24AECB"/>
<path d="M24.4817 85.9221C23.5749 85.3663 22.3172 85.5419 21.5859 86.2731C20.8839 86.9752 20.7376 88.1452 21.2349 89.0227C21.5566 89.5785 22.1124 89.9295 22.6097 90.2805C22.8144 90.4268 23.0192 90.5438 23.2239 90.6608C23.2824 90.69 23.3117 90.69 23.3702 90.69C23.3994 90.69 23.4287 90.6608 23.4287 90.6315C23.4287 90.573 23.4287 90.5145 23.4287 90.456C23.4287 90.3683 23.3994 90.2805 23.3994 90.1928C23.3994 90.0758 23.4579 89.988 23.5749 89.988C24.1892 89.988 24.8035 89.6663 25.1837 89.1982C25.447 88.818 25.5933 88.3792 25.564 87.9404C25.564 87.3262 25.3007 86.7119 24.8912 86.3024C24.7742 86.1269 24.628 86.0099 24.4817 85.9221Z" fill="#24AECB"/>
<path d="M125.426 30.4415H119.357L116.213 37.2301L113.069 30.4415H107L113.479 42.418V49.7585H118.947V42.418L125.426 30.4415Z" fill="#21194F"/>
<path d="M134.326 50.2C139.985 50.2 144.469 45.8123 144.469 40.1C144.469 34.3877 139.985 30 134.326 30C128.667 30 124.183 34.3877 124.183 40.1C124.183 45.8123 128.667 50.2 134.326 50.2ZM134.326 44.7913C131.619 44.7913 129.651 42.7768 129.651 40.1C129.651 37.4232 131.619 35.4087 134.326 35.4087C137.032 35.4087 139.001 37.4232 139.001 40.1C139.001 42.7768 137.032 44.7913 134.326 44.7913Z" fill="#21194F"/>
<path d="M154.037 50.2C158.657 50.2 161.829 47.4404 161.829 43.3011V30.4415H156.361V42.694C156.361 44.0186 155.677 44.8464 154.037 44.8464C152.397 44.8464 151.713 44.0186 151.713 42.694V30.4415H146.245V43.3011C146.245 47.4404 149.417 50.2 154.037 50.2Z" fill="#21194F"/>
</svg>
