<?xml version="1.0" standalone="no"?>
<!DOCTYPE svg PUBLIC "-//W3C//DTD SVG 20010904//EN"
 "http://www.w3.org/TR/2001/REC-SVG-20010904/DTD/svg10.dtd">
<svg version="1.0" xmlns="http://www.w3.org/2000/svg"
 width="260.000000pt" height="260.000000pt" viewBox="0 0 260.000000 260.000000"
 preserveAspectRatio="xMidYMid meet">
<metadata>
Created by potrace 1.14, written by Peter Selinger 2001-2017
</metadata>
<g transform="translate(0.000000,260.000000) scale(0.100000,-0.100000)"
fill="#000000" stroke="none">
<path d="M1218 2505 c-2 -1 -34 -5 -73 -8 -186 -16 -403 -101 -565 -221 -397
-293 -529 -863 -309 -1334 97 -210 232 -345 604 -608 194 -137 262 -180 357
-223 114 -53 146 -39 134 57 -30 235 -20 258 113 263 274 11 580 175 737 394
361 507 149 1283 -431 1572 -64 33 -188 72 -277 89 -70 13 -281 27 -290 19z"/>
</g>
</svg>
