<svg width="137" height="149" viewBox="0 0 137 149" fill="none" xmlns="http://www.w3.org/2000/svg">
<path d="M137 135L125.557 133.451L129.936 144.135L137 135ZM30.3653 0.226607C29.5914 0.860983 28.8327 1.5095 28.0893 2.17159L29.4195 3.66512C30.1426 3.02111 30.8805 2.39036 31.6332 1.77339L30.3653 0.226607ZM23.8033 6.31171C22.4271 7.7526 21.1131 9.244 19.8613 10.7812L21.4122 12.0441C22.6311 10.5471 23.9103 9.09532 25.2496 7.69311L23.8033 6.31171ZM16.2783 15.5469C15.1456 17.18 14.0759 18.8547 13.0691 20.5662L14.793 21.5803C15.775 19.9109 16.8179 18.2782 17.9217 16.6866L16.2783 15.5469ZM10.238 25.8052C9.35809 27.5832 8.54084 29.3933 7.78624 31.2307L9.6363 31.9905C10.3735 30.1955 11.1716 28.4279 12.0305 26.6922L10.238 25.8052ZM5.71342 36.8111C5.08634 38.691 4.52135 40.5936 4.01844 42.514L5.9532 43.0207C6.44512 41.1422 6.99763 39.2818 7.61066 37.4439L5.71342 36.8111ZM2.69808 48.3134C2.32028 50.2587 2.00411 52.2174 1.74957 54.1849L3.73304 54.4416C3.98222 52.5155 4.29169 50.5984 4.6614 48.6947L2.69808 48.3134ZM1.17113 60.1041C1.03988 62.0822 0.970079 64.0647 0.961752 66.047L2.96173 66.0554C2.96989 64.1144 3.03823 62.1733 3.16674 60.2365L1.17113 60.1041ZM1.12133 71.9911C1.23621 73.972 1.4128 75.9483 1.65113 77.9154L3.63661 77.6748C3.40333 75.7494 3.23045 73.8147 3.11798 71.8753L1.12133 71.9911ZM2.55337 83.7952C2.91692 85.7472 3.34277 87.6855 3.83096 89.6054L5.76928 89.1125C5.29185 87.235 4.87528 85.339 4.51956 83.429L2.55337 83.7952ZM5.48732 95.3195C6.10395 97.2082 6.78369 99.0736 7.52661 100.911L9.3808 100.162C8.65528 98.367 7.99119 96.5446 7.38855 94.6988L5.48732 95.3195ZM9.95262 106.351C10.8263 108.136 11.7638 109.888 12.7653 111.602L14.4922 110.593C13.5159 108.922 12.6015 107.213 11.749 105.472L9.95262 106.351ZM15.9632 116.629C17.0921 118.262 18.285 119.853 19.5419 121.397L21.0927 120.134C19.8695 118.632 18.708 117.083 17.6084 115.492L15.9632 116.629ZM23.4932 125.868C24.8638 127.298 26.2971 128.676 27.7931 129.999L29.1177 128.5C27.6635 127.215 26.2699 125.874 24.9369 124.484L23.4932 125.868ZM32.4185 133.756C34.0005 134.935 35.6421 136.056 37.3434 137.115L38.4002 135.417C36.7466 134.388 35.1511 133.298 33.6136 132.153L32.4185 133.756ZM42.5388 140.056C44.2931 140.956 46.1026 141.793 47.9673 142.565L48.7321 140.717C46.9174 139.966 45.1572 139.151 43.4512 138.277L42.5388 140.056ZM53.536 144.617C55.3941 145.221 57.301 145.763 59.2565 146.24L59.7306 144.297C57.8231 143.831 55.9643 143.303 54.1542 142.715L53.536 144.617ZM65.1125 147.446C67.031 147.771 68.9919 148.037 70.9952 148.24L71.1971 146.25C69.2374 146.052 67.3206 145.792 65.4466 145.475L65.1125 147.446ZM76.9006 148.652C78.8599 148.728 80.8566 148.748 82.8906 148.708L82.8513 146.708C80.8556 146.747 78.898 146.728 76.9784 146.654L76.9006 148.652ZM88.7721 148.433C90.7108 148.291 92.6811 148.097 94.683 147.849L94.4376 145.865C92.4681 146.108 90.5309 146.299 88.6261 146.438L88.7721 148.433ZM100.56 146.983C102.462 146.658 104.392 146.287 106.348 145.867L105.928 143.911C103.999 144.325 102.097 144.692 100.223 145.012L100.56 146.983ZM112.155 144.497C114.017 144.019 115.902 143.499 117.81 142.935L117.243 141.017C115.358 141.574 113.496 142.088 111.658 142.56L112.155 144.497ZM123.499 141.147C125.325 140.539 127.171 139.892 129.038 139.205L128.347 137.328C126.5 138.008 124.673 138.648 122.867 139.249L123.499 141.147Z" fill="#EE6947"/>
</svg>
