<svg width="141" height="124" viewBox="0 0 141 124" fill="none" xmlns="http://www.w3.org/2000/svg">
<path d="M114 124L124.478 119.147L115.036 112.5L114 124ZM1.2589 9.53581C2.22885 9.27582 3.19767 9.02282 4.16523 8.77677L3.67231 6.83846C2.69643 7.08662 1.71931 7.3418 0.741097 7.604L1.2589 9.53581ZM9.95411 7.3839C11.9131 6.93938 13.8656 6.5236 15.8104 6.13645L15.4199 4.17494C13.4576 4.56558 11.4878 4.98505 9.51153 5.43348L9.95411 7.3839ZM21.677 5.05101C23.6474 4.71427 25.6083 4.40729 27.5585 4.12993L27.2769 2.14986C25.3081 2.42987 23.3287 2.73974 21.3401 3.0796L21.677 5.05101ZM33.496 3.37296C35.4884 3.14853 37.4679 2.95563 39.4329 2.79407L39.269 0.800798C37.2837 0.964016 35.2843 1.15888 33.2721 1.38552L33.496 3.37296ZM45.3636 2.39923C47.3739 2.29723 49.3671 2.22892 51.3414 2.19412L51.3061 0.19443C49.3094 0.229623 47.2943 0.298695 45.2622 0.401797L45.3636 2.39923ZM57.3097 2.19181C59.3147 2.22625 61.2976 2.29649 63.2565 2.40232L63.3644 0.405234C61.3805 0.298055 59.3731 0.226959 57.3441 0.192107L57.3097 2.19181ZM69.1792 2.83747C71.1866 3.025 73.1653 3.25167 75.1133 3.51721L75.3835 1.53554C73.4068 1.26609 71.4 1.03623 69.3652 0.846138L69.1792 2.83747ZM80.9974 4.45474C82.9746 4.81689 84.9155 5.22159 86.8174 5.66852L87.2749 3.72155C85.3398 3.26682 83.3665 2.8554 81.3578 2.48747L80.9974 4.45474ZM92.5559 7.17993C94.4814 7.74438 96.3605 8.35569 98.1903 9.01348L98.8669 7.13139C96.9981 6.45961 95.081 5.83598 93.1185 5.26069L92.5559 7.17993ZM103.692 11.1966C105.533 12.0005 107.315 12.8568 109.033 13.7649L109.968 11.9966C108.203 11.0643 106.377 10.1866 104.492 9.36365L103.692 11.1966ZM114.146 16.7396C115.829 17.8171 117.437 18.9524 118.967 20.1448L120.196 18.5677C118.617 17.3356 116.958 16.1647 115.224 15.0551L114.146 16.7396ZM123.422 23.9973C124.85 25.3695 126.187 26.8039 127.428 28.2999L128.967 27.0228C127.676 25.4671 126.288 23.9777 124.807 22.5551L123.422 23.9973ZM130.901 33.0349C131.96 34.6791 132.916 36.3868 133.764 38.1577L135.568 37.2936C134.683 35.4465 133.686 33.6658 132.583 31.9523L130.901 33.0349ZM135.961 43.5968C136.571 45.4281 137.076 47.3191 137.472 49.2695L139.432 48.8715C139.02 46.8429 138.494 44.8738 137.859 42.965L135.961 43.5968ZM138.31 55.0917C138.478 57.0061 138.547 58.9719 138.515 60.9892L140.515 61.0209C140.548 58.937 140.476 56.9023 140.303 54.9175L138.31 55.0917ZM138.146 66.8648C137.941 68.7648 137.651 70.7062 137.272 72.6888L139.236 73.0639C139.625 71.0302 139.923 69.0353 140.135 67.0797L138.146 66.8648ZM135.954 78.4442C135.458 80.3058 134.889 82.2007 134.243 84.1289L136.139 84.7642C136.798 82.7976 137.38 80.8623 137.886 78.9586L135.954 78.4442ZM132.178 89.7523C131.469 91.5324 130.697 93.3389 129.861 95.1716L131.681 96.0016C132.53 94.1405 133.314 92.3041 134.036 90.4927L132.178 89.7523ZM127.277 100.517C126.385 102.268 125.435 104.041 124.428 105.836L126.173 106.814C127.192 104.997 128.154 103.201 129.059 101.426L127.277 100.517ZM121.464 110.909C120.447 112.582 119.383 114.273 118.268 115.983L119.943 117.075C121.069 115.348 122.145 113.639 123.173 111.947L121.464 110.909Z" fill="#EE6947"/>
</svg>
