<svg width="20" height="20" viewBox="0 0 20 20" fill="none" xmlns="http://www.w3.org/2000/svg">
<path d="M10 0C4.47723 0 0 4.47723 0 10C0 15.5228 4.47723 20 10 20C15.5228 20 20 15.5228 20 10C20 4.47723 15.5228 0 10 0ZM7.14286 10C7.14286 9.43491 7.31043 8.88251 7.62437 8.41266C7.93832 7.9428 8.38454 7.57659 8.90662 7.36034C9.42869 7.14409 10.0032 7.08751 10.5574 7.19776C11.1116 7.308 11.6207 7.58012 12.0203 7.97969C12.4199 8.37927 12.692 8.88837 12.8022 9.4426C12.9125 9.99683 12.8559 10.5713 12.6397 11.0934C12.4234 11.6155 12.0572 12.0617 11.5873 12.3756C11.1175 12.6896 10.5651 12.8571 10 12.8571C9.24224 12.8571 8.51551 12.5561 7.97969 12.0203C7.44388 11.4845 7.14286 10.7578 7.14286 10ZM17.7339 7.2192L13.8799 7.45536C13.5306 6.92521 13.077 6.47167 12.5469 6.12232L12.7808 2.2683C13.9196 2.68044 14.9538 3.33798 15.8101 4.19433C16.6665 5.05068 17.324 6.08488 17.7362 7.22366L17.7339 7.2192ZM4.19152 4.19152C5.046 3.33378 6.08005 2.67619 7.2192 2.26607L7.45536 6.12009C6.92419 6.46985 6.46985 6.92419 6.12009 7.45536L2.26607 7.22143C2.67589 6.08148 3.33351 5.04665 4.19152 4.19152ZM2.26607 12.7808L6.12009 12.5469C6.47009 13.0772 6.92441 13.5308 7.45536 13.8799L7.22143 17.7339C6.08288 17.322 5.04882 16.6648 4.19249 15.8089C3.33615 14.9529 2.67849 13.9192 2.26607 12.7808ZM15.8085 15.8085C14.954 16.6662 13.92 17.3238 12.7808 17.7339L12.5469 13.8799C13.077 13.5306 13.5306 13.077 13.8799 12.5469L17.7339 12.7808C17.3238 13.92 16.6662 14.954 15.8085 15.8085Z" fill="white"/>
</svg>
