<svg width="24" height="24" viewBox="0 0 24 24" fill="none" xmlns="http://www.w3.org/2000/svg">
<path fill-rule="evenodd" clip-rule="evenodd" d="M4.36364 0C3.20633 0 2.09642 0.459739 1.27808 1.27808C0.459739 2.09642 0 3.20633 0 4.36364V19.6364C0 20.7937 0.459739 21.9036 1.27808 22.7219C2.09642 23.5403 3.20633 24 4.36364 24H19.6364C20.7937 24 21.9036 23.5403 22.7219 22.7219C23.5403 21.9036 24 20.7937 24 19.6364V4.36364C24 3.20633 23.5403 2.09642 22.7219 1.27808C21.9036 0.459739 20.7937 0 19.6364 0H4.36364ZM8.72727 3.27273C8.72727 2.9834 8.61234 2.70592 8.40775 2.50134C8.20317 2.29675 7.92569 2.18182 7.63636 2.18182C7.34704 2.18182 7.06956 2.29675 6.86497 2.50134C6.66039 2.70592 6.54545 2.9834 6.54545 3.27273V4.36364H3.27273C2.9834 4.36364 2.70592 4.47857 2.50134 4.68316C2.29675 4.88774 2.18182 5.16522 2.18182 5.45455C2.18182 5.74387 2.29675 6.02135 2.50134 6.22593C2.70592 6.43052 2.9834 6.54545 3.27273 6.54545H10.2895C10.1165 7.75285 9.7021 8.91303 9.07091 9.95673L7.36691 8.00727C7.17595 7.78941 6.90627 7.65633 6.61719 7.6373C6.32812 7.61827 6.04332 7.71486 5.82545 7.90582C5.60759 8.09677 5.47451 8.36646 5.45548 8.65553C5.43646 8.94461 5.53304 9.22941 5.724 9.44727L7.728 11.736C6.21818 13.3429 4.47273 14.1818 3.27273 14.1818C2.9834 14.1818 2.70592 14.2968 2.50134 14.5013C2.29675 14.7059 2.18182 14.9834 2.18182 15.2727C2.18182 15.5621 2.29675 15.8395 2.50134 16.0441C2.70592 16.2487 2.9834 16.3636 3.27273 16.3636C5.24291 16.3636 7.45091 15.1516 9.17018 13.3833L9.54218 13.8087C9.73304 14.0249 10.0017 14.1567 10.2895 14.1753C10.5772 14.1939 10.8606 14.0978 11.0777 13.9081C11.2949 13.7184 11.428 13.4504 11.4482 13.1628C11.4683 12.8751 11.3737 12.5912 11.1851 12.3731L10.5665 11.6662C11.5571 10.2033 12.2825 8.45782 12.4865 6.54545H14.1818C14.4711 6.54545 14.7486 6.43052 14.9532 6.22593C15.1578 6.02135 15.2727 5.74387 15.2727 5.45455C15.2727 5.16522 15.1578 4.88774 14.9532 4.68316C14.7486 4.47857 14.4711 4.36364 14.1818 4.36364H8.72727V3.27273ZM17.3389 9.33055C17.2482 9.14958 17.109 8.99743 16.9367 8.89109C16.7645 8.78475 16.5661 8.72844 16.3636 8.72844C16.1612 8.72844 15.9628 8.78475 15.7906 8.89109C15.6183 8.99743 15.4791 9.14958 15.3884 9.33055L12.1156 15.876C12.0923 15.9218 12.0723 15.9692 12.0556 16.0178L10.9647 19.2905C10.8732 19.5651 10.8944 19.8648 11.0238 20.1237C11.1532 20.3826 11.3802 20.5795 11.6547 20.6711C11.9293 20.7627 12.229 20.7414 12.4879 20.612C12.7468 20.4826 12.9437 20.2557 13.0353 19.9811L13.8764 17.4545H18.8487L19.6909 19.9811C19.7362 20.117 19.8078 20.2428 19.9016 20.351C19.9955 20.4593 20.1097 20.548 20.2379 20.6122C20.366 20.6763 20.5056 20.7146 20.6485 20.7248C20.7914 20.735 20.935 20.7169 21.0709 20.6716C21.2069 20.6264 21.3326 20.5548 21.4408 20.4609C21.5491 20.3671 21.6379 20.2528 21.702 20.1247C21.7661 19.9965 21.8044 19.857 21.8146 19.7141C21.8248 19.5711 21.8067 19.4276 21.7615 19.2916L20.6705 16.0189C20.654 15.9699 20.6339 15.9222 20.6105 15.876L17.3378 9.33055H17.3389ZM16.3636 12.2575L17.8713 15.2727H14.856L16.3636 12.2575Z" fill="#21194F"/>
</svg>
